<svg width="104" height="40" viewBox="0 0 104 40" fill="none" xmlns="http://www.w3.org/2000/svg">
<path d="M20.7429 28.1142C20.7429 28.9315 20.3355 29.3389 19.5206 29.3366H14.4899C14.5817 30.785 15.4897 31.8449 16.8286 31.8449C17.6447 31.8449 18.277 31.5481 18.5349 31.0076C18.6197 30.8062 18.7615 30.634 18.9429 30.5122C19.1243 30.3905 19.3374 30.3244 19.5559 30.3222C19.6913 30.3144 19.827 30.3347 19.9542 30.3819C20.0814 30.429 20.1974 30.5021 20.295 30.5963C20.3926 30.6906 20.4696 30.8041 20.5211 30.9296C20.5727 31.0551 20.5977 31.1899 20.5945 31.3255C20.5838 31.5173 20.5341 31.7048 20.4484 31.8767C20.3628 32.0486 20.243 32.2013 20.0964 32.3253C19.6798 32.7495 19.1785 33.0814 18.6253 33.2993C18.072 33.5172 17.4791 33.6162 16.8851 33.5901C14.0977 33.5901 12.4479 31.5092 12.4479 28.8526C12.4479 26.0688 14.2461 24.1222 16.7544 24.1222C17.2797 24.118 17.8005 24.2183 18.2866 24.4175C18.7726 24.6167 19.2141 24.9106 19.5854 25.2822C19.9567 25.6538 20.2502 26.0956 20.449 26.5818C20.6477 27.0681 20.7476 27.589 20.7429 28.1142ZM14.5252 27.8175H18.7222C18.648 26.6446 17.8672 25.7543 16.6979 25.7543C15.5285 25.7543 14.6913 26.6729 14.5252 27.8175Z" fill="#184785"/>
<path d="M28.0134 32.753C27.3469 33.3037 26.5037 33.5948 25.6394 33.5726C23.7282 33.5726 22.3716 32.3997 22.3716 30.7464C22.3716 29.093 23.5409 28.0155 25.9044 27.8672C26.8123 27.8142 27.3175 27.6835 27.5718 27.4609V27.0546C27.5829 26.8725 27.5549 26.6902 27.4897 26.5198C27.4245 26.3494 27.3236 26.195 27.1937 26.0668C27.0639 25.9387 26.9082 25.8398 26.737 25.7768C26.5658 25.7138 26.3831 25.6881 26.2011 25.7016C25.5511 25.7016 25.1413 25.9983 25.0318 26.4435C24.9666 26.6641 24.8314 26.8576 24.6465 26.9946C24.4617 27.1316 24.2373 27.2048 24.0073 27.203C23.8766 27.2063 23.7465 27.1833 23.6249 27.1354C23.5032 27.0874 23.3925 27.0155 23.2992 26.9238C23.2059 26.8322 23.132 26.7228 23.0819 26.602C23.0318 26.4812 23.0065 26.3516 23.0075 26.2209C23.0266 25.8545 23.1875 25.5099 23.4561 25.26C23.9013 24.6841 24.8304 24.1118 26.2011 24.1118C28.3738 24.1118 29.7092 25.2812 29.7092 27.415V31.1562C29.7092 31.3434 29.7304 31.3999 29.8046 31.3999C29.8895 31.381 29.9757 31.368 30.0624 31.3611C30.182 31.3586 30.3008 31.3806 30.4116 31.4257C30.5223 31.4709 30.6226 31.5382 30.7064 31.6236C30.7901 31.709 30.8555 31.8106 30.8984 31.9222C30.9414 32.0338 30.9611 32.153 30.9562 32.2725C30.9562 32.9014 30.3981 33.4207 29.4689 33.4207C29.1909 33.4319 28.9141 33.3773 28.6612 33.2613C28.4082 33.1452 28.1863 32.9711 28.0134 32.753ZM27.586 31.3999V29.0224C27.0785 29.2743 26.5203 29.4072 25.9538 29.411C25.0459 29.4852 24.5407 30.008 24.5407 30.6934C24.5407 31.3787 25.1377 31.9369 26.028 31.9369C26.6031 31.9696 27.1682 31.777 27.6036 31.3999" fill="#184785"/>
<path d="M32.6625 32.2334C32.6625 31.919 32.7366 31.3785 32.7366 31.0464V26.7576C32.7366 26.4255 32.5706 25.8285 32.5706 25.5494C32.5668 25.394 32.5943 25.2394 32.6515 25.0948C32.7087 24.9502 32.7944 24.8186 32.9035 24.7079C33.0126 24.5971 33.1429 24.5095 33.2866 24.4501C33.4303 24.3907 33.5845 24.3609 33.7399 24.3624C33.9988 24.3661 34.2474 24.4644 34.4388 24.6389C34.6301 24.8133 34.751 25.0517 34.7786 25.3092C35.025 24.9561 35.3489 24.6641 35.7255 24.4553C36.102 24.2465 36.5213 24.1265 36.9512 24.1045C37.1071 24.0904 37.2642 24.1085 37.4128 24.1578C37.5614 24.207 37.6982 24.2862 37.8149 24.3906C37.9315 24.495 38.0254 24.6222 38.0908 24.7645C38.1561 24.9067 38.1915 25.0608 38.1948 25.2173C38.1971 25.358 38.1714 25.4977 38.1192 25.6283C38.067 25.7589 37.9893 25.8779 37.8907 25.9782C37.792 26.0785 37.6744 26.1581 37.5447 26.2125C37.4149 26.2668 37.2756 26.2948 37.1349 26.2948C36.6898 26.2948 36.6156 26.1252 36.2447 26.1252C35.7819 26.1252 35.3156 26.4255 34.927 27.0367V31.0464C34.927 31.3785 35.0188 31.919 35.0188 32.2334C35.0188 32.5435 34.8956 32.841 34.6763 33.0603C34.457 33.2796 34.1596 33.4028 33.8495 33.4028C33.5393 33.4028 33.2419 33.2796 33.0226 33.0603C32.8033 32.841 32.6801 32.5435 32.6801 32.2334" fill="#184785"/>
<path d="M45.7307 27.87C45.7307 26.7395 45.063 25.9588 44.0421 25.9588C43.6831 25.9682 43.3317 26.0644 43.018 26.2392C42.7043 26.4139 42.4374 26.6619 42.2403 26.9621V31.046C42.2403 31.378 42.3145 31.9186 42.3145 32.233C42.3188 32.3885 42.2917 32.5434 42.2346 32.6882C42.1776 32.8329 42.0919 32.9647 41.9827 33.0756C41.8735 33.1864 41.743 33.2741 41.5991 33.3333C41.4552 33.3925 41.3008 33.422 41.1452 33.42C40.9901 33.42 40.8366 33.3892 40.6936 33.3293C40.5505 33.2695 40.4208 33.1817 40.312 33.0713C40.2032 32.9608 40.1174 32.8298 40.0597 32.6859C40.002 32.542 39.9735 32.388 39.9758 32.233C39.9758 31.9186 40.0712 31.378 40.0712 31.046V26.7572C40.0712 26.4251 39.9016 25.8281 39.9016 25.549C39.895 25.3958 39.9194 25.2428 39.9733 25.0993C40.0273 24.9557 40.1097 24.8246 40.2156 24.7137C40.3215 24.6028 40.4488 24.5145 40.5897 24.4541C40.7306 24.3936 40.8823 24.3623 41.0357 24.3619C41.2903 24.3686 41.5348 24.4629 41.7279 24.629C41.921 24.795 42.0508 25.0227 42.0955 25.2734C42.3999 24.9002 42.7852 24.601 43.2221 24.3984C43.6591 24.1958 44.1364 24.0952 44.6179 24.1041C46.5115 24.1041 47.9034 25.5172 47.9034 27.5732V31.046C47.9034 31.378 47.9952 31.9186 47.9952 32.233C47.9971 32.5453 47.8751 32.8457 47.6559 33.0682C47.4367 33.2907 47.1382 33.4172 46.8259 33.42C46.6704 33.4215 46.5163 33.3916 46.3726 33.3323C46.2289 33.2729 46.0986 33.1853 45.9895 33.0745C45.8804 32.9637 45.7947 32.8322 45.7375 32.6876C45.6803 32.543 45.6528 32.3884 45.6565 32.233C45.6565 31.9186 45.7307 31.378 45.7307 31.046V27.87Z" fill="#184785"/>
<path d="M50.8923 22.3024C50.8923 21.9314 50.8181 21.3379 50.8181 21.0588C50.8093 20.8973 50.8335 20.7356 50.8893 20.5837C50.945 20.4318 51.0312 20.2929 51.1424 20.1754C51.2537 20.0579 51.3877 19.9643 51.5363 19.9004C51.685 19.8364 51.8451 19.8035 52.0069 19.8035C52.1687 19.8035 52.3288 19.8364 52.4774 19.9004C52.6261 19.9643 52.7601 20.0579 52.8714 20.1754C52.9826 20.2929 53.0687 20.4318 53.1245 20.5837C53.1803 20.7356 53.2045 20.8973 53.1957 21.0588C53.1957 21.3733 53.1003 21.9491 53.1003 22.32V30.9542C53.1003 31.3074 53.1957 31.8797 53.1957 32.1977C53.2045 32.3593 53.1803 32.5209 53.1245 32.6728C53.0687 32.8247 52.9826 32.9636 52.8714 33.0811C52.7601 33.1986 52.6261 33.2922 52.4774 33.3561C52.3288 33.4201 52.1687 33.4531 52.0069 33.4531C51.8451 33.4531 51.685 33.4201 51.5363 33.3561C51.3877 33.2922 51.2537 33.1986 51.1424 33.0811C51.0312 32.9636 50.945 32.8247 50.8893 32.6728C50.8335 32.5209 50.8093 32.3593 50.8181 32.1977C50.8181 31.9009 50.8923 31.3039 50.8923 30.9542V22.3024Z" fill="#184785"/>
<path d="M56.4978 24.4184C56.7027 24.4184 57.056 24.4926 57.3315 24.5102V23.7507C57.3315 23.4151 57.2397 22.8604 57.2397 22.5813C57.2311 22.4273 57.254 22.2732 57.307 22.1283C57.36 21.9835 57.442 21.8509 57.548 21.7389C57.654 21.6268 57.7817 21.5375 57.9234 21.4765C58.0651 21.4155 58.2177 21.384 58.3719 21.384C58.5262 21.384 58.6788 21.4155 58.8205 21.4765C58.9622 21.5375 59.0899 21.6268 59.1959 21.7389C59.3019 21.8509 59.3839 21.9835 59.4369 22.1283C59.4899 22.2732 59.5128 22.4273 59.5042 22.5813C59.5042 22.8604 59.4124 23.4151 59.4124 23.7507V24.4926H60.0977C60.3591 24.4926 60.8043 24.4184 61.0268 24.4184C61.1534 24.4106 61.2803 24.4287 61.3996 24.4718C61.5189 24.5149 61.6281 24.5819 61.7205 24.6688C61.8129 24.7557 61.8866 24.8606 61.9369 24.977C61.9872 25.0934 62.0132 25.2189 62.0132 25.3457C62.0132 25.4726 61.9872 25.5981 61.9369 25.7145C61.8866 25.8309 61.8129 25.9358 61.7205 26.0227C61.6281 26.1095 61.5189 26.1766 61.3996 26.2196C61.2803 26.2627 61.1534 26.2809 61.0268 26.2731C60.8043 26.2731 60.3591 26.1989 60.0977 26.1989H59.4124V30.6749C59.3968 30.7733 59.4023 30.8738 59.4283 30.9699C59.4543 31.066 59.5004 31.1555 59.5634 31.2325C59.6265 31.3096 59.7051 31.3724 59.7941 31.417C59.8831 31.4615 59.9806 31.4867 60.08 31.491C60.3191 31.4839 60.546 31.3837 60.7124 31.2119C60.9104 31.016 61.1759 30.9035 61.4543 30.8975C61.5887 30.8906 61.7231 30.9116 61.8489 30.9594C61.9747 31.0071 62.0893 31.0805 62.1853 31.1748C62.2813 31.2691 62.3566 31.3824 62.4065 31.5073C62.4564 31.6323 62.4799 31.7663 62.4753 31.9008C62.4644 32.1963 62.3374 32.4755 62.122 32.678C61.8605 32.9252 61.5525 33.1181 61.216 33.2454C60.8794 33.3728 60.5209 33.4321 60.1613 33.4199C58.3243 33.4199 57.3351 32.3283 57.3351 30.5442V26.1812C57.0595 26.1812 56.7062 26.2731 56.5013 26.2731C56.3747 26.2809 56.2479 26.2627 56.1286 26.2196C56.0093 26.1766 55.9001 26.1095 55.8077 26.0227C55.7152 25.9358 55.6416 25.8309 55.5913 25.7145C55.5409 25.5981 55.515 25.4726 55.515 25.3457C55.515 25.2189 55.5409 25.0934 55.5913 24.977C55.6416 24.8606 55.7152 24.7557 55.8077 24.6688C55.9001 24.5819 56.0093 24.5149 56.1286 24.4718C56.2479 24.4287 56.3747 24.4106 56.5013 24.4184" fill="#184785"/>
<path d="M66.9625 25.9061V30.5588C66.9625 31.1205 67.3158 31.4102 67.6691 31.4102C67.9174 31.4025 68.153 31.2986 68.3262 31.1205C68.5314 30.9144 68.809 30.7965 69.0998 30.7919C69.241 30.7843 69.3822 30.8065 69.5143 30.857C69.6463 30.9076 69.7663 30.9854 69.8662 31.0854C69.9662 31.1853 70.044 31.3053 70.0946 31.4373C70.1451 31.5694 70.1673 31.7106 70.1597 31.8518C70.1534 32.1586 70.0265 32.4505 69.8064 32.6643C69.5358 32.9199 69.2173 33.1195 68.8693 33.2517C68.5213 33.3838 68.1506 33.446 67.7786 33.4345C65.8673 33.4345 64.8216 32.2969 64.8216 30.4422V22.2497C64.8216 21.8964 64.7263 21.3206 64.7263 21.0309C64.7175 20.8707 64.7415 20.7105 64.7967 20.5599C64.8519 20.4093 64.9373 20.2716 65.0476 20.1551C65.1578 20.0386 65.2907 19.9459 65.438 19.8825C65.5853 19.8191 65.7441 19.7864 65.9044 19.7864C66.0648 19.7864 66.2235 19.8191 66.3709 19.8825C66.5182 19.9459 66.651 20.0386 66.7613 20.1551C66.8716 20.2716 66.9569 20.4093 67.0122 20.5599C67.0674 20.7105 67.0914 20.8707 67.0826 21.0309C67.0826 21.3206 66.9872 21.8999 66.9872 22.2497V25.9061H66.9625Z" fill="#EE6E27"/>
<path d="M7.9335 25.9061V30.5588C7.9335 31.1205 8.28678 31.4102 8.64006 31.4102C8.88566 31.4028 9.11875 31.3001 9.29009 31.124C9.49617 30.9191 9.77323 30.8015 10.0638 30.7955C10.205 30.7878 10.3462 30.81 10.4782 30.8606C10.6103 30.9111 10.7302 30.9889 10.8302 31.0889C10.9302 31.1889 11.008 31.3088 11.0585 31.4408C11.1091 31.5729 11.1312 31.7141 11.1236 31.8553C11.1174 32.1621 10.9904 32.454 10.7703 32.6678C10.4956 32.9216 10.1735 33.1187 9.82253 33.2478C9.47154 33.3769 9.09852 33.4356 8.72484 33.4203C6.81714 33.4203 5.75731 32.2828 5.75731 30.4281V22.2497C5.75731 21.8964 5.66192 21.3206 5.66192 21.0309C5.65315 20.8707 5.67712 20.7105 5.73236 20.5599C5.78761 20.4093 5.87297 20.2716 5.98324 20.1551C6.09351 20.0386 6.22636 19.9459 6.37369 19.8825C6.52101 19.8191 6.67972 19.7864 6.84011 19.7864C7.00049 19.7864 7.1592 19.8191 7.30652 19.8825C7.45385 19.9459 7.5867 20.0386 7.69697 20.1551C7.80724 20.2716 7.8926 20.4093 7.94784 20.5599C8.00309 20.7105 8.02706 20.8707 8.01829 21.0309C8.01829 21.3206 7.9229 21.8999 7.9229 22.2497V25.9061H7.9335Z" fill="#184785"/>
<path d="M73.9404 20.1472C74.189 20.1542 74.4299 20.2342 74.6332 20.3773C74.8365 20.5205 74.9931 20.7203 75.0834 20.9519C75.1737 21.1836 75.1938 21.4367 75.1411 21.6796C75.0884 21.9226 74.9652 22.1446 74.787 22.318C74.6088 22.4914 74.3835 22.6084 74.1391 22.6544C73.8948 22.7004 73.6424 22.6733 73.4133 22.5767C73.1843 22.48 72.9888 22.3179 72.8513 22.1108C72.7138 21.9036 72.6405 21.6606 72.6404 21.412C72.6487 21.073 72.7894 20.7508 73.0324 20.5144C73.2755 20.278 73.6014 20.1462 73.9404 20.1472ZM72.8453 26.7394C72.8453 26.3861 72.7711 25.8668 72.7711 25.5488C72.7711 25.2387 72.8943 24.9413 73.1136 24.722C73.3329 24.5027 73.6303 24.3795 73.9404 24.3795C74.2506 24.3795 74.548 24.5027 74.7673 24.722C74.9866 24.9413 75.1098 25.2387 75.1098 25.5488C75.1098 25.8668 75.0179 26.4038 75.0179 26.7394V31.0458C75.0179 31.3779 75.1098 31.9184 75.1098 32.2329C75.1098 32.543 74.9866 32.8404 74.7673 33.0597C74.548 33.279 74.2506 33.4022 73.9404 33.4022C73.6303 33.4022 73.3329 33.279 73.1136 33.0597C72.8943 32.8404 72.7711 32.543 72.7711 32.2329C72.7711 31.9184 72.8453 31.3779 72.8453 31.0458V26.7394Z" fill="#EE6E27"/>
<path d="M82.8002 31.4737C82.7261 31.6574 82.5035 32.3251 82.447 32.4947C82.3808 32.7464 82.2342 32.9696 82.0295 33.1303C81.8248 33.291 81.5732 33.3804 81.3129 33.3849H80.9809C80.7214 33.3874 80.4687 33.3028 80.2631 33.1446C80.0575 32.9864 79.9109 32.7637 79.8468 32.5123C79.7762 32.3428 79.5501 31.6751 79.4759 31.4914L77.6035 26.98C77.4728 26.6656 77.1937 26.2169 77.1019 25.959C77.0434 25.8238 77.0111 25.6788 77.0065 25.5316C77.0041 25.377 77.0328 25.2236 77.091 25.0804C77.1491 24.9372 77.2355 24.8072 77.3449 24.6981C77.4543 24.589 77.5846 24.503 77.728 24.4453C77.8713 24.3876 78.0249 24.3593 78.1794 24.3622C78.4095 24.3674 78.633 24.4406 78.8216 24.5727C79.0102 24.7047 79.1555 24.8896 79.2392 25.1041C79.3311 25.3479 79.4441 25.8848 79.5925 26.3865L80.7265 29.4671C80.9102 29.9864 81.0798 30.5622 81.1716 30.8802C81.2635 30.5269 81.4295 29.9334 81.5991 29.4671L82.6943 26.3865C82.8603 25.8672 82.9698 25.3267 83.0652 25.0864C83.1422 24.8717 83.2829 24.6856 83.4685 24.553C83.6541 24.4205 83.8758 24.3477 84.1038 24.3445C84.2557 24.3398 84.407 24.3656 84.5487 24.4205C84.6904 24.4754 84.8196 24.5582 84.9287 24.6639C85.0377 24.7697 85.1244 24.8963 85.1836 25.0363C85.2428 25.1762 85.2733 25.3266 85.2732 25.4786C85.27 25.6256 85.2388 25.7707 85.1813 25.906C85.086 26.1639 84.8281 26.6303 84.6797 26.9447L82.8002 31.4737Z" fill="#EE6E27"/>
<path d="M95.0135 28.1142C95.0135 28.9315 94.6061 29.3389 93.7912 29.3366H88.7782C88.87 30.785 89.778 31.8448 91.1169 31.8448C91.9329 31.8448 92.5653 31.5481 92.8232 31.0076C92.908 30.8062 93.0498 30.634 93.2312 30.5122C93.4126 30.3904 93.6257 30.3244 93.8442 30.3222C93.9796 30.3144 94.1152 30.3347 94.2425 30.3818C94.3697 30.429 94.4857 30.502 94.5833 30.5963C94.6809 30.6906 94.7579 30.804 94.8094 30.9295C94.861 31.055 94.886 31.1899 94.8828 31.3255C94.8694 31.5189 94.8165 31.7074 94.7271 31.8794C94.6378 32.0514 94.514 32.2032 94.3635 32.3253C93.9469 32.7495 93.4456 33.0814 92.8924 33.2993C92.3391 33.5171 91.7462 33.6162 91.1522 33.59C88.3684 33.59 86.7186 31.5092 86.7186 28.8526C86.7186 26.0687 88.5167 24.1222 91.025 24.1222C91.5517 24.1184 92.0738 24.2197 92.5608 24.4201C93.0478 24.6205 93.4899 24.9161 93.8613 25.2894C94.2327 25.6628 94.5259 26.1065 94.7238 26.5946C94.9216 27.0827 95.0201 27.6053 95.0135 28.1319V28.1142ZM88.7958 27.8351H92.9928C92.9186 26.6622 92.1379 25.772 90.9685 25.772C89.7992 25.772 88.9619 26.7011 88.7958 27.8351Z" fill="#EE6E27"/>
<path d="M74.5647 17.4448C74.3087 17.515 74.0413 17.5329 73.7782 17.4974C73.5152 17.4619 73.262 17.3738 73.0338 17.2383C72.8056 17.1027 72.6071 16.9226 72.4501 16.7086C72.2931 16.4946 72.1808 16.2512 72.12 15.9928C71.992 15.4834 72.0682 14.9442 72.3322 14.4901C72.5962 14.0361 73.0271 13.7031 73.5331 13.5623C73.7898 13.4795 74.0606 13.4499 74.3291 13.4754C74.5975 13.5009 74.8579 13.581 75.0944 13.7106C75.3309 13.8402 75.5384 14.0168 75.7042 14.2294C75.8701 14.442 75.9908 14.6862 76.0591 14.9471C76.1861 15.4757 76.1012 16.033 75.8226 16.4997C75.5439 16.9665 75.0937 17.3057 74.5682 17.4448" fill="#EE6E27"/>
<path d="M54.2807 15.067C54.3748 15.4116 54.3644 15.7763 54.2508 16.115C54.1371 16.4536 53.9254 16.7508 53.6425 16.9689C53.3596 17.1869 53.0183 17.316 52.6619 17.3396C52.3055 17.3633 51.9501 17.2804 51.6409 17.1017C51.3317 16.9229 51.0825 16.6563 50.9252 16.3356C50.7678 16.015 50.7093 15.6548 50.7571 15.3008C50.8049 14.9468 50.9568 14.6151 51.1936 14.3476C51.4303 14.0802 51.7412 13.8891 52.0868 13.7988C52.3141 13.7379 52.5512 13.7224 52.7845 13.7532C53.0178 13.784 53.2428 13.8605 53.4465 13.9783C53.6503 14.096 53.8288 14.2528 53.9719 14.4396C54.1151 14.6265 54.22 14.8396 54.2807 15.067Z" fill="#EE6E27"/>
<path d="M60.4513 9.02981C60.5898 9.52093 60.579 10.0421 60.4203 10.5271C60.2617 11.0121 59.9624 11.4389 59.5605 11.7533C59.1586 12.0676 58.6722 12.2554 58.1633 12.2925C57.6544 12.3297 57.146 12.2147 56.7026 11.9621C56.2593 11.7094 55.9011 11.3307 55.6737 10.8739C55.4462 10.4171 55.3598 9.90303 55.4254 9.39701C55.491 8.89098 55.7056 8.4159 56.0419 8.03219C56.3783 7.64848 56.8211 7.3735 57.3142 7.24222C57.6378 7.15334 57.9758 7.12918 58.3087 7.17114C58.6417 7.2131 58.9631 7.32034 59.2545 7.48673C59.5459 7.65312 59.8017 7.87538 60.007 8.14078C60.2124 8.40617 60.3634 8.70949 60.4513 9.03334" fill="#EE6E27"/>
<path d="M71.8595 8.12207C72.0888 8.93771 72.0704 9.80313 71.8066 10.6083C71.5428 11.4134 71.0454 12.1219 70.3778 12.6436C69.7103 13.1653 68.9026 13.4767 68.0576 13.5382C67.2125 13.5996 66.3683 13.4083 65.6323 12.9887C64.8962 12.569 64.3016 11.9399 63.9241 11.1814C63.5466 10.4229 63.4032 9.56924 63.5122 8.72901C63.6211 7.88877 63.9775 7.09993 64.536 6.4628C65.0945 5.82568 65.8299 5.36905 66.6486 5.151C67.1859 5.00365 67.7469 4.96362 68.2996 5.03321C68.8523 5.1028 69.3859 5.28064 69.8698 5.55657C70.3538 5.83249 70.7786 6.2011 71.12 6.64131C71.4614 7.08151 71.7127 7.58469 71.8595 8.12207Z" fill="#EE6E27"/>
<path d="M93.37 23.3838C93.37 23.3061 93.3983 23.2071 93.4018 23.1259L93.4371 21.7446H93.1192C93.0344 21.7446 92.9567 21.7693 92.886 21.7693C92.8604 21.7714 92.8347 21.768 92.8106 21.7592C92.7864 21.7503 92.7645 21.7363 92.7464 21.7182C92.7282 21.7 92.7142 21.6781 92.7054 21.654C92.6966 21.6299 92.6931 21.6041 92.6953 21.5785C92.6957 21.553 92.7013 21.5278 92.7118 21.5046C92.7223 21.4813 92.7374 21.4604 92.7563 21.4432C92.7751 21.426 92.7973 21.4128 92.8215 21.4045C92.8456 21.3962 92.8712 21.3929 92.8966 21.3948L94.3698 21.4337C94.3957 21.4327 94.4216 21.4371 94.4458 21.4464C94.47 21.4558 94.4921 21.47 94.5106 21.4882C94.5291 21.5064 94.5437 21.5282 94.5535 21.5522C94.5633 21.5762 94.5681 21.602 94.5676 21.628C94.5678 21.6532 94.5626 21.6782 94.5524 21.7013C94.5423 21.7244 94.5274 21.7451 94.5088 21.7621C94.4901 21.779 94.4681 21.7919 94.4442 21.7999C94.4202 21.8078 94.3949 21.8106 94.3698 21.8082C94.2991 21.8082 94.2144 21.7728 94.1366 21.7693H93.8187L93.7869 23.14C93.7869 23.2177 93.7869 23.3202 93.7869 23.3979C93.7908 23.4278 93.7882 23.4582 93.7794 23.487C93.7707 23.5158 93.7558 23.5425 93.7359 23.5651C93.716 23.5878 93.6915 23.6059 93.6641 23.6183C93.6366 23.6308 93.6068 23.6372 93.5767 23.6372C93.5465 23.6372 93.5168 23.6308 93.4893 23.6183C93.4618 23.6059 93.4373 23.5878 93.4174 23.5651C93.3976 23.5425 93.3827 23.5158 93.3739 23.487C93.3651 23.4582 93.3626 23.4278 93.3665 23.3979L93.37 23.3838ZM95.0481 21.4443C95.0839 21.4464 95.1187 21.4572 95.1494 21.4756C95.1802 21.4941 95.206 21.5197 95.2247 21.5503C95.253 21.5997 95.2742 21.6704 95.313 21.7481L95.7582 22.7161C95.7983 22.7898 95.8326 22.8666 95.8606 22.9457C95.892 22.8691 95.9286 22.7947 95.9701 22.7231L96.4683 21.7799C96.4982 21.7123 96.5336 21.6473 96.5743 21.5856C96.5937 21.5548 96.6209 21.5298 96.6532 21.513C96.6855 21.4962 96.7216 21.4884 96.758 21.4902H96.7968C96.8251 21.4901 96.8532 21.4959 96.8791 21.5073C96.905 21.5187 96.9283 21.5355 96.9473 21.5565C96.9663 21.5775 96.9806 21.6023 96.9894 21.6292C96.9982 21.6561 97.0012 21.6846 96.9982 21.7128C96.9982 21.7905 96.9699 21.8894 96.9699 21.9671L96.9346 23.2177C96.9346 23.2955 96.9346 23.3979 96.9346 23.4756C96.9385 23.5055 96.9359 23.5359 96.9272 23.5647C96.9184 23.5936 96.9035 23.6202 96.8836 23.6428C96.8637 23.6655 96.8393 23.6836 96.8118 23.696C96.7843 23.7085 96.7545 23.7149 96.7244 23.7149C96.6943 23.7149 96.6645 23.7085 96.637 23.696C96.6095 23.6836 96.585 23.6655 96.5651 23.6428C96.5453 23.6202 96.5304 23.5936 96.5216 23.5647C96.5128 23.5359 96.5103 23.5055 96.5142 23.4756C96.5142 23.3979 96.5425 23.299 96.5425 23.2213L96.5813 22.4299C96.5813 22.3381 96.5813 22.2038 96.5813 22.1049L96.0903 23.0694C96.0655 23.1082 96.0337 23.193 96.009 23.2389C95.9925 23.275 95.9654 23.3051 95.9313 23.3253C95.8972 23.3456 95.8578 23.3548 95.8182 23.352C95.7783 23.3542 95.7388 23.3433 95.7057 23.3209C95.6725 23.2986 95.6475 23.2661 95.6345 23.2283C95.6133 23.1824 95.5851 23.0941 95.5639 23.0552L95.1364 22.0802C95.1364 22.1826 95.1364 22.3063 95.1364 22.3981V23.193C95.1364 23.2672 95.1364 23.3696 95.1364 23.4474C95.1403 23.4773 95.1378 23.5076 95.129 23.5365C95.1202 23.5653 95.1054 23.5919 95.0855 23.6146C95.0656 23.6372 95.0411 23.6554 95.0136 23.6678C94.9862 23.6802 94.9564 23.6866 94.9262 23.6866C94.8961 23.6866 94.8663 23.6802 94.8388 23.6678C94.8114 23.6554 94.7869 23.6372 94.767 23.6146C94.7471 23.5919 94.7322 23.5653 94.7234 23.5365C94.7147 23.5076 94.7121 23.4773 94.716 23.4474C94.716 23.3696 94.7443 23.2707 94.7443 23.193L94.7796 21.9424C94.7796 21.8647 94.7796 21.7622 94.7796 21.6845C94.7786 21.6567 94.7833 21.629 94.7934 21.6031C94.8035 21.5772 94.8188 21.5536 94.8383 21.5337C94.8578 21.5139 94.8811 21.4983 94.9069 21.4877C94.9326 21.4772 94.9602 21.472 94.988 21.4725L95.0481 21.4443Z" fill="#EE6E27"/>
</svg>
